<?xml version="1.0" encoding="utf-8"?>
<!-- Generator: Adobe Illustrator 25.3.1, SVG Export Plug-In . SVG Version: 6.00 Build 0)  -->
<svg version="1.1" id="圖層_1" xmlns="http://www.w3.org/2000/svg" xmlns:xlink="http://www.w3.org/1999/xlink" x="0px" y="0px"
	 viewBox="0 0 458.1 115.7" style="enable-background:new 0 0 458.1 115.7;" xml:space="preserve">
<style type="text/css">
	.st0{fill:#78E5FE;}
	.st1{fill:#FFFFFF;}
</style>
<g id="圖層_2_1_">
	<g id="圖層_1-2">
		<path class="st0" d="M103.6,35c-1.7-6.7-4.9-13.1-9.2-18.5c-4.2-5.3-9.7-9.5-16-12.2C72,1.4,63.6,0,53.1,0H0v115.7h53.1
			c7.2-0.1,14.4-1.2,21.3-3.2c6-1.7,11.6-4.9,16.1-9.2c5.1-4.8,9.1-10.6,11.7-17.1c2.8-6.8,4.2-16.4,4.2-28.8
			C106.5,49.9,105.6,42.4,103.6,35z M90,62.5H80v-4.6c0-0.7,0.1-1.5,0.4-2.2c0.2-0.5,0.6-1,1-1.4c0.5-0.4,1-0.6,1.6-0.8
			c0.6-0.2,1.3-0.3,1.9-0.2c0.8,0,1.7,0.1,2.5,0.4c0.6,0.2,1.1,0.6,1.5,1c0.4,0.4,0.7,0.9,0.8,1.4c0.2,0.6,0.3,1.2,0.3,1.9V62.5z"/>
		<path class="st1" d="M147.4,10h16.9c2.8-0.1,5.5,0.4,8.1,1.4c2,0.9,3.7,2.2,5.1,3.9c1.4,1.7,2.4,3.8,2.9,5.9
			c0.6,2.3,0.9,4.7,0.9,7.1c0.1,3.1-0.4,6.2-1.4,9.2c-0.8,2.1-2.1,3.9-3.7,5.5c-1.4,1.4-3.2,2.4-5.1,2.9c-2.2,0.6-4.5,1-6.8,1h-16.9
			V10z M158.8,18.4v20.1h2.8c1.7,0.1,3.5-0.2,5.1-0.8c1.1-0.6,1.9-1.6,2.4-2.8c0.7-2.1,1-4.2,0.9-6.4c0-3.9-0.6-6.6-1.9-8
			c-1.2-1.4-3.4-2.2-6.3-2.2L158.8,18.4z"/>
		<path class="st1" d="M219.2,36.1h-20.6c0.1,1.3,0.5,2.6,1.3,3.7c1,1.1,2.4,1.8,3.9,1.7c1,0,2-0.3,2.9-0.8c0.7-0.4,1.3-1,1.8-1.7
			l10.1,0.9c-1.3,2.4-3.2,4.4-5.6,5.8c-2.2,1.2-5.3,1.7-9.4,1.7c-2.9,0.1-5.7-0.4-8.4-1.5c-2.1-1.1-3.8-2.7-5-4.8
			c-1.4-2.3-2.1-5-2-7.7c-0.2-3.8,1.3-7.5,4-10.1c2.7-2.6,6.4-3.9,11.1-3.9c3.8,0,6.8,0.6,9.1,1.7c2.2,1.1,3.9,2.9,5,5
			c1.3,2.7,1.9,5.6,1.7,8.6L219.2,36.1z M208.8,31.2c0-1.6-0.6-3.1-1.6-4.3c-2.1-1.9-5.2-1.7-7.1,0.4c-0.1,0.1-0.2,0.2-0.2,0.3
			c-0.7,1.1-1.1,2.3-1.2,3.6H208.8z"/>
		<path class="st1" d="M246.7,36.4l9.7,1.1c-0.5,1.9-1.4,3.7-2.6,5.3c-1.3,1.5-2.8,2.7-4.7,3.5c-2.3,0.9-4.8,1.3-7.3,1.2
			c-2.4,0.1-4.8-0.2-7.1-0.8c-1.8-0.5-3.5-1.3-4.9-2.6c-1.3-1.2-2.4-2.6-3.2-4.2c-0.9-2-1.2-4.2-1.2-6.3c-0.1-2.4,0.4-4.7,1.4-6.9
			c0.7-1.4,1.6-2.6,2.8-3.6c1.1-1,2.4-1.8,3.7-2.4c2.5-0.9,5.1-1.3,7.7-1.2c4.3,0,7.7,0.8,10,2.3c2.4,1.7,4.1,4.1,4.8,6.8l-9.7,1.3
			c-0.2-1-0.8-1.9-1.6-2.6c-0.9-0.6-2.1-0.9-3.2-0.9c-1.6,0-3.1,0.6-4.1,1.9c-1.1,1.2-1.6,3-1.6,5.5c-0.1,1.8,0.4,3.6,1.6,5
			c1,1.1,2.5,1.7,4,1.7c1.2,0,2.4-0.3,3.4-1C245.6,38.8,246.3,37.7,246.7,36.4z"/>
		<path class="st1" d="M293.6,36.1h-20.5c0.1,1.3,0.5,2.6,1.3,3.7c1,1.1,2.4,1.8,3.9,1.7c1,0,2-0.3,2.9-0.8c0.7-0.4,1.3-1,1.8-1.7
			L293,40c-1.3,2.4-3.2,4.4-5.6,5.8c-2.2,1.2-5.3,1.7-9.4,1.7c-2.9,0.1-5.7-0.4-8.4-1.5c-2.1-1.1-3.8-2.7-5-4.8
			c-1.4-2.3-2.1-5-2-7.7c-0.2-3.8,1.3-7.5,4-10.1c2.7-2.6,6.4-3.9,11.1-3.9c3.8,0,6.8,0.6,9.1,1.7c2.1,1.1,3.9,2.9,5,5
			c1.3,2.7,1.9,5.6,1.7,8.6V36.1z M283.2,31.2c0-1.6-0.6-3.1-1.6-4.3c-0.9-0.9-2.1-1.3-3.4-1.3c-1.5,0-3,0.7-3.9,1.9
			c-0.7,1.1-1.1,2.3-1.2,3.6L283.2,31.2z"/>
		<path class="st1" d="M301.1,20.2h9.5v4.4c1.2-1.6,2.6-2.9,4.3-3.8c1.7-0.8,3.5-1.2,5.3-1.1c2.5-0.1,4.9,0.8,6.7,2.5
			c1.6,1.7,2.4,4.3,2.4,7.8v17h-10.3V32.2c0.1-1.3-0.2-2.5-0.9-3.6c-0.7-0.7-1.6-1.1-2.6-1c-1.2,0-2.3,0.5-3,1.4
			c-0.8,0.9-1.2,2.6-1.2,5.1v12.8h-10.2V20.2z"/>
		<path class="st1" d="M350.7,10v10.2h5.6v7.5h-5.6v9.5c-0.1,0.8,0,1.5,0.3,2.3c0.4,0.6,1.1,0.9,1.8,0.9c1.1-0.1,2.2-0.3,3.2-0.7
			l0.8,7.1c-2.3,0.5-4.7,0.8-7.1,0.8c-1.9,0.1-3.9-0.2-5.6-1c-1.2-0.7-2.2-1.7-2.7-3c-0.7-2.1-1-4.3-0.9-6.5v-9.4h-3.8v-7.5h3.8
			v-4.9L350.7,10z"/>
		<path class="st1" d="M364.1,20.2h9.6v4.4c0.6-1.5,1.6-2.9,2.9-3.9c1.1-0.7,2.3-1.1,3.6-1.1c1.7,0.1,3.4,0.6,5,1.4l-3.2,7.3
			c-0.9-0.4-1.9-0.7-2.8-0.8c-1.3,0-2.5,0.6-3.1,1.7c-1,1.6-1.6,4.5-1.6,8.8v9h-10.3V20.2z"/>
		<path class="st1" d="M399.1,28.8l-9.8-1c0.3-1.4,0.8-2.8,1.6-4c0.8-1.1,1.8-1.9,3-2.6c1.2-0.6,2.5-1,3.9-1.2
			c1.8-0.3,3.5-0.4,5.3-0.4c2.5,0,5,0.1,7.4,0.5c1.7,0.3,3.3,1,4.7,2.1c1,0.9,1.7,2,2.1,3.2c0.5,1.3,0.7,2.6,0.8,4v11.8
			c0,1,0.1,2,0.2,2.9c0.2,0.9,0.6,1.9,1,2.7h-9.6c-0.3-0.5-0.5-1-0.8-1.6c-0.2-0.6-0.3-1.1-0.4-1.7c-1.1,1.2-2.5,2.1-4,2.8
			c-2,0.8-4.2,1.1-6.3,1.1c-3.2,0-5.6-0.7-7.3-2.2c-1.6-1.4-2.5-3.4-2.5-5.5c-0.1-1.8,0.6-3.6,1.8-5c1.2-1.3,3.4-2.3,6.6-2.9
			c3.8-0.8,6.3-1.3,7.4-1.6c1.3-0.3,2.5-0.7,3.7-1.2c0.1-0.9-0.2-1.9-0.8-2.6c-0.8-0.6-1.8-0.9-2.7-0.8c-1.3-0.1-2.6,0.2-3.8,0.8
			C399.9,27.1,399.4,27.9,399.1,28.8z M408,34.2c-1.4,0.5-2.9,0.9-4.4,1.3c-2.1,0.6-3.4,1.1-4,1.6c-1.1,1-1.1,2.7-0.1,3.7
			c0,0,0.1,0.1,0.1,0.1c0.7,0.6,1.6,0.8,2.5,0.8c1.1,0,2.2-0.3,3.2-0.8c0.9-0.5,1.6-1.2,2.1-2c0.4-1,0.7-2,0.6-3.1L408,34.2z"/>
		<path class="st1" d="M427.3,10h10.2v36.9h-10.2V10z"/>
		<path class="st1" d="M145.3,96.5l10.9-0.7c0.1,1.4,0.6,2.8,1.4,4c1.2,1.5,3.1,2.3,5,2.2c1.3,0.1,2.7-0.3,3.7-1.1
			c0.8-0.6,1.3-1.6,1.3-2.7c0-1-0.5-1.9-1.3-2.6c-0.8-0.8-2.8-1.5-5.8-2.1c-5-1.1-8.6-2.6-10.7-4.5c-2.1-1.8-3.3-4.4-3.2-7.1
			c0-1.9,0.6-3.8,1.7-5.4c1.2-1.8,2.9-3.2,5-4c2.9-1.1,5.9-1.6,9-1.5c4.7,0,8.3,0.9,10.8,2.6c2.5,1.8,3.9,4.5,4.4,8.4l-10.7,0.6
			c-0.1-2.8-2.5-4.9-5.2-4.8c-0.1,0-0.2,0-0.3,0c-1.1-0.1-2.1,0.2-3,0.8c-0.6,0.5-1,1.2-1,2c0,0.6,0.3,1.2,0.8,1.6
			c0.5,0.5,1.9,0.9,3.8,1.4c5,1.1,8.5,2.2,10.7,3.3c1.9,0.9,3.6,2.3,4.7,4.1c1,1.7,1.5,3.5,1.5,5.5c0,2.3-0.7,4.6-2,6.5
			c-1.3,2-3.2,3.6-5.5,4.5c-2.8,1.1-5.9,1.6-8.9,1.5c-6.3,0-10.6-1.2-13-3.6C147,103.2,145.5,100,145.3,96.5z"/>
		<path class="st1" d="M186.7,71.8h10.2v13.6c1.2-1.3,2.6-2.3,4.2-3.1c1.5-0.7,3.2-1,4.9-0.9c2.5-0.1,4.8,0.8,6.6,2.5
			c1.6,1.7,2.4,4.3,2.4,7.8v17h-10.3V94c0.1-1.3-0.2-2.5-0.9-3.6c-0.7-0.7-1.6-1.1-2.6-1c-1.2,0-2.3,0.5-3,1.4
			c-0.8,0.9-1.2,2.6-1.2,5.1v12.8h-10.2L186.7,71.8z"/>
		<path class="st1" d="M222.6,95.4c-0.1-3.8,1.4-7.5,4.1-10.1c2.8-2.6,6.5-4,11.2-4c5.4,0,9.4,1.6,12.1,4.7c4.7,5.7,4.3,14-0.8,19.3
			c-2.7,2.6-6.5,3.9-11.3,3.9c-4.3,0-7.8-1.1-10.4-3.3C224.3,103.5,222.5,99.5,222.6,95.4z M232.9,95.4c0,2.4,0.5,4.1,1.4,5.3
			c1.7,2,4.7,2.3,6.7,0.6c0.2-0.2,0.4-0.4,0.6-0.6c0.9-1.1,1.4-2.9,1.4-5.4c0-2.3-0.5-4-1.4-5.2c-0.9-1.1-2.2-1.7-3.5-1.7
			c-1.4,0-2.8,0.6-3.7,1.7C233.3,91.3,232.9,93.1,232.9,95.4L232.9,95.4z"/>
		<path class="st1" d="M258.1,82h9.9l4.3,16.8l5.5-16.8h9.3l5.6,16.9l4.3-16.9h9.8l-9.8,26.7h-9.1l-5.4-16.1l-5.2,16.1H268L258.1,82
			z"/>
		<path class="st1" d="M312.6,82h9.6v4.4c0.6-1.5,1.6-2.8,2.9-3.9c1.1-0.7,2.3-1.1,3.6-1.1c1.7,0.1,3.4,0.5,5,1.4l-3.2,7.3
			c-0.9-0.4-1.9-0.7-2.9-0.8c-1.3,0-2.5,0.6-3.1,1.7c-1,1.6-1.6,4.5-1.6,8.8v9h-10.3V82z"/>
		<path class="st1" d="M337,95.4c-0.1-3.8,1.4-7.5,4.1-10.1c2.7-2.6,6.5-4,11.2-4c5.4,0,9.4,1.6,12.1,4.7c4.7,5.7,4.3,14-0.8,19.3
			c-2.7,2.6-6.5,3.9-11.3,3.9c-4.3,0-7.8-1.1-10.4-3.3C338.7,103.5,336.9,99.5,337,95.4z M347.2,95.4c0,2.4,0.5,4.1,1.5,5.3
			c1.7,2,4.7,2.3,6.7,0.6c0.2-0.2,0.4-0.4,0.6-0.6c0.9-1.1,1.4-2.9,1.4-5.4c0-2.3-0.5-4-1.4-5.2c-0.9-1.1-2.2-1.7-3.5-1.7
			c-1.4,0-2.8,0.6-3.7,1.7C347.7,91.3,347.2,93.1,347.2,95.4L347.2,95.4z"/>
		<path class="st1" d="M374.2,95.4c-0.1-3.8,1.4-7.5,4.1-10.1c2.8-2.6,6.5-4,11.2-4c5.4,0,9.4,1.6,12.1,4.7c4.7,5.7,4.3,14-0.8,19.3
			c-2.7,2.6-6.5,3.9-11.3,3.9c-4.3,0-7.8-1.1-10.4-3.3C375.9,103.5,374.1,99.5,374.2,95.4z M384.4,95.4c0,2.4,0.5,4.1,1.5,5.3
			c1.7,2,4.7,2.3,6.7,0.6c0.2-0.2,0.4-0.4,0.6-0.6c0.9-1.1,1.4-2.9,1.4-5.4c0-2.3-0.5-4-1.4-5.2c-0.9-1.1-2.2-1.7-3.6-1.7
			c-1.4,0-2.8,0.6-3.7,1.7C384.9,91.3,384.4,93.1,384.4,95.4L384.4,95.4z"/>
		<path class="st1" d="M412.7,82h9.6v3.9c1.1-1.4,2.6-2.6,4.2-3.5c1.6-0.7,3.3-1.1,5.1-1c1.8-0.1,3.5,0.3,5.1,1.1
			c1.3,0.8,2.4,2,3.1,3.4c1.2-1.4,2.7-2.7,4.4-3.6c1.5-0.7,3.2-1,4.9-0.9c2.5-0.1,4.9,0.8,6.7,2.5c1.6,1.7,2.4,4.4,2.4,8v16.8h-10.2
			V93.5c0.1-1-0.2-1.9-0.7-2.7c-0.6-0.9-1.5-1.4-2.6-1.4c-1.1,0-2.2,0.4-2.9,1.3c-0.8,1.2-1.2,2.7-1.1,4.2v13.8h-10.2V94
			c0-0.8,0-1.6-0.2-2.4c-0.2-0.6-0.6-1.2-1.1-1.6c-0.5-0.4-1.2-0.6-1.9-0.6c-1.1,0-2.2,0.5-2.9,1.3c-0.8,0.9-1.1,2.4-1.1,4.4v13.6
			h-10.2L412.7,82z"/>
	</g>
</g>
</svg>
