<svg xmlns="http://www.w3.org/2000/svg" viewBox="0 0 431.01 143.16"><defs><style>.cls-1{fill:#78e5fe;}.cls-2{font-size:43.35px;fill:#fff;font-family:Arial-Black, Arial Black;font-weight:800;letter-spacing:0.06em;}.cls-3{letter-spacing:0.06em;}</style></defs><g id="圖層_2" data-name="圖層 2"><g id="圖層_1-2" data-name="圖層 1"><path class="cls-1" d="M128.22,43.36a62.66,62.66,0,0,0-11.33-22.95A51,51,0,0,0,97.12,5.27Q85.15,0,65.72,0H0V143.16H65.72a102.78,102.78,0,0,0,26.37-3.9A47.25,47.25,0,0,0,112,127.88a58.85,58.85,0,0,0,14.5-21.19q5.24-12.64,5.23-35.6A106.2,106.2,0,0,0,128.22,43.36ZM111.3,77.27H98.93V71.59a6.88,6.88,0,0,1,.46-2.71,4.33,4.33,0,0,1,1.31-1.7,5.41,5.41,0,0,1,2-1,9.26,9.26,0,0,1,2.39-.31,8.11,8.11,0,0,1,3.08.46A5,5,0,0,1,110,67.6a4.06,4.06,0,0,1,1,1.72,8.62,8.62,0,0,1,.34,2.27Z"/><text class="cls-2" transform="translate(161.48 65.89)">Decentral<tspan class="cls-3"><tspan x="0" y="52.02">Showroom</tspan></tspan></text></g></g></svg>