<svg xmlns="http://www.w3.org/2000/svg" viewBox="0 0 467.78 115.72"><defs><style>.cls-1{fill:#78e5fe;}.cls-2{fill:#fff;}</style></defs><g id="圖層_2" data-name="圖層 2"><g id="圖層_1-2" data-name="圖層 1"><path class="cls-1" d="M103.64,35.05A50.55,50.55,0,0,0,94.49,16.5a41.27,41.27,0,0,0-16-12.24Q68.82,0,53.12,0H0V115.72H53.12a82.83,82.83,0,0,0,21.32-3.16,38.24,38.24,0,0,0,16.1-9.19,47.76,47.76,0,0,0,11.72-17.13q4.23-10.23,4.22-28.78A85.79,85.79,0,0,0,103.64,35.05ZM90,62.46H80V57.87a5.4,5.4,0,0,1,.37-2.19,3.44,3.44,0,0,1,1-1.38A4.26,4.26,0,0,1,83,53.51a7.09,7.09,0,0,1,1.93-.25,6.59,6.59,0,0,1,2.49.37,4.06,4.06,0,0,1,1.47,1,3.23,3.23,0,0,1,.8,1.39A7.24,7.24,0,0,1,90,57.87Z"/><path class="cls-2" d="M134,4.48h18.2a21.87,21.87,0,0,1,8.69,1.46,14.06,14.06,0,0,1,5.47,4.19,17.24,17.24,0,0,1,3.14,6.36,29.36,29.36,0,0,1,1,7.67A26.8,26.8,0,0,1,169,34a16.5,16.5,0,0,1-4,5.87A13.25,13.25,0,0,1,159.5,43a28.48,28.48,0,0,1-7.3,1.08H134Zm12.25,9V35.11h3a12.58,12.58,0,0,0,5.46-.85,5.78,5.78,0,0,0,2.54-3,18.75,18.75,0,0,0,.92-6.88q0-6.3-2-8.63t-6.82-2.32Z"/><path class="cls-2" d="M211.1,32.49H189a7.13,7.13,0,0,0,1.43,3.95,5.21,5.21,0,0,0,4.16,1.86,6.28,6.28,0,0,0,3.09-.81,7.11,7.11,0,0,0,1.91-1.81l10.85,1a15.53,15.53,0,0,1-6,6.21q-3.51,1.88-10.08,1.88a20.73,20.73,0,0,1-9-1.61A13.24,13.24,0,0,1,180,38.05a15.47,15.47,0,0,1-2.15-8.24,14.44,14.44,0,0,1,4.32-10.89q4.31-4.17,11.91-4.17c4.11,0,7.35.63,9.73,1.87A12.55,12.55,0,0,1,209.23,22a19.67,19.67,0,0,1,1.87,9.22Zm-11.19-5.27a7.36,7.36,0,0,0-1.72-4.57,5.38,5.38,0,0,0-7.85.7,7.63,7.63,0,0,0-1.28,3.87Z"/><path class="cls-2" d="M240.61,32.87l10.47,1.19a14.74,14.74,0,0,1-2.84,5.66,13.18,13.18,0,0,1-5,3.72,19.88,19.88,0,0,1-7.8,1.33,28.54,28.54,0,0,1-7.61-.86,13.23,13.23,0,0,1-5.24-2.75,13.93,13.93,0,0,1-3.43-4.47,15.73,15.73,0,0,1-1.24-6.81,16,16,0,0,1,1.51-7.37,13.35,13.35,0,0,1,3-3.88,14,14,0,0,1,4-2.55,21.88,21.88,0,0,1,8.24-1.33q7,0,10.72,2.52a13.28,13.28,0,0,1,5.18,7.35L240.15,26a4.76,4.76,0,0,0-1.77-2.77,5.73,5.73,0,0,0-3.44-.93,5.54,5.54,0,0,0-4.42,2q-1.7,1.95-1.69,5.92a7.68,7.68,0,0,0,1.67,5.37,5.54,5.54,0,0,0,4.27,1.83,5.86,5.86,0,0,0,3.64-1.1A6.6,6.6,0,0,0,240.61,32.87Z"/><path class="cls-2" d="M291.05,32.49H269a7.13,7.13,0,0,0,1.44,3.95,5.21,5.21,0,0,0,4.16,1.86,6.25,6.25,0,0,0,3.08-.81,7,7,0,0,0,1.92-1.81l10.84,1a15.58,15.58,0,0,1-6,6.21q-3.51,1.88-10.08,1.88a20.67,20.67,0,0,1-9-1.61A13.18,13.18,0,0,1,260,38.05a15.47,15.47,0,0,1-2.15-8.24,14.47,14.47,0,0,1,4.31-10.89q4.32-4.17,11.91-4.17c4.11,0,7.36.63,9.73,1.87A12.58,12.58,0,0,1,289.19,22a19.8,19.8,0,0,1,1.86,9.22Zm-11.19-5.27a7.36,7.36,0,0,0-1.72-4.57,5,5,0,0,0-3.66-1.38,5,5,0,0,0-4.19,2.08A7.63,7.63,0,0,0,269,27.22Z"/><path class="cls-2" d="M299.16,15.4H309.4v4.68a15.37,15.37,0,0,1,4.65-4.1,12.25,12.25,0,0,1,5.73-1.23,9.43,9.43,0,0,1,7.16,2.72q2.58,2.72,2.58,8.4V44.12H318.46V28.33a5.75,5.75,0,0,0-1-3.83,3.57,3.57,0,0,0-2.81-1.12,4,4,0,0,0-3.25,1.51c-.83,1-1.24,2.83-1.24,5.44V44.12h-11Z"/><path class="cls-2" d="M352.41,4.48V15.4h6v8.06h-6V33.63a5.36,5.36,0,0,0,.35,2.43,2,2,0,0,0,1.89.92,12,12,0,0,0,3.41-.7l.81,7.59a35.49,35.49,0,0,1-7.62.9,13.27,13.27,0,0,1-6.06-1.06,6.4,6.4,0,0,1-2.88-3.2,18.85,18.85,0,0,1-.93-6.95V23.46h-4.06V15.4h4.06V10.13Z"/><path class="cls-2" d="M366.86,15.4h10.3v4.71a11.28,11.28,0,0,1,3.07-4.21,6.53,6.53,0,0,1,3.91-1.15,11.65,11.65,0,0,1,5.33,1.52l-3.41,7.84A8.7,8.7,0,0,0,383,23.3a3.81,3.81,0,0,0-3.36,1.78q-1.69,2.52-1.7,9.41v9.63H366.86Z"/><path class="cls-2" d="M404.41,24.7l-10.52-1.1a11.79,11.79,0,0,1,1.72-4.34,9.35,9.35,0,0,1,3.23-2.75,13.53,13.53,0,0,1,4.16-1.3,34.29,34.29,0,0,1,5.73-.46,45.41,45.41,0,0,1,7.95.56,10.21,10.21,0,0,1,5,2.31,8.06,8.06,0,0,1,2.22,3.45,12.46,12.46,0,0,1,.81,4.26V38a15.25,15.25,0,0,0,.26,3.17,13.94,13.94,0,0,0,1.12,2.94H415.76a11.23,11.23,0,0,1-.81-1.69,12.65,12.65,0,0,1-.38-1.83,14.24,14.24,0,0,1-4.3,3,17.92,17.92,0,0,1-6.78,1.19c-3.43,0-6-.8-7.8-2.38A7.57,7.57,0,0,1,393,36.52a7.69,7.69,0,0,1,1.92-5.38c1.28-1.41,3.65-2.45,7.09-3.14q6.18-1.24,8-1.74A37.13,37.13,0,0,0,414,25a3.87,3.87,0,0,0-.84-2.84,4.2,4.2,0,0,0-2.94-.81,7.69,7.69,0,0,0-4.06.86A4.75,4.75,0,0,0,404.41,24.7ZM414,30.49q-2.26.81-4.73,1.43c-2.24.6-3.65,1.18-4.25,1.76a2.83,2.83,0,0,0,0,4.15,3.84,3.84,0,0,0,2.66.83,6.78,6.78,0,0,0,3.42-.9,5.37,5.37,0,0,0,2.25-2.17,7.32,7.32,0,0,0,.66-3.34Z"/><path class="cls-2" d="M434.73,4.48h11V44.12h-11Z"/><path class="cls-2" d="M131.7,97.45l11.66-.73a8.88,8.88,0,0,0,1.54,4.33,6.47,6.47,0,0,0,5.4,2.4,6,6,0,0,0,4-1.23,3.7,3.7,0,0,0,1.42-2.85,3.65,3.65,0,0,0-1.36-2.76q-1.35-1.22-6.27-2.3-8.05-1.8-11.49-4.81a9.67,9.67,0,0,1-3.46-7.65A10.38,10.38,0,0,1,135,76.08a11.72,11.72,0,0,1,5.33-4.27A24.78,24.78,0,0,1,150,70.25q7.6,0,11.59,2.83t4.74,9l-11.54.67a5.39,5.39,0,0,0-6-5.11,4.87,4.87,0,0,0-3.22.91,2.77,2.77,0,0,0-1.08,2.2,2.21,2.21,0,0,0,.89,1.7c.58.53,2,1,4.11,1.46q8,1.74,11.5,3.51a12,12,0,0,1,5.06,4.39,11.18,11.18,0,0,1,1.58,5.87,12.55,12.55,0,0,1-2.11,7,13.21,13.21,0,0,1-5.89,4.88,24,24,0,0,1-9.55,1.66q-10.11,0-14-3.89A15.35,15.35,0,0,1,131.7,97.45Z"/><path class="cls-2" d="M176.14,70.93h11v14.6a14.83,14.83,0,0,1,4.46-3.33,12.56,12.56,0,0,1,5.24-1,9.27,9.27,0,0,1,7.07,2.73c1.72,1.82,2.58,4.62,2.58,8.38v18.25H195.45V94.77a5.72,5.72,0,0,0-1-3.82,3.55,3.55,0,0,0-2.81-1.12,4,4,0,0,0-3.24,1.51q-1.24,1.51-1.24,5.43v13.79h-11Z"/><path class="cls-2" d="M214.77,96.29a14.35,14.35,0,0,1,4.43-10.83q4.44-4.26,12-4.26,8.63,0,13,5a15.65,15.65,0,0,1-.85,20.78q-4.4,4.23-12.15,4.23-6.93,0-11.2-3.51A14.11,14.11,0,0,1,214.77,96.29Zm11,0c0,2.56.51,4.45,1.55,5.68a5.09,5.09,0,0,0,7.82,0q1.52-1.8,1.52-5.81,0-3.74-1.54-5.55a4.8,4.8,0,0,0-3.81-1.83,5,5,0,0,0-4,1.85Q225.8,92.48,225.8,96.26Z"/><path class="cls-2" d="M252.88,81.85h10.64l4.6,18.08L274,81.85h9.94L290,100l4.63-18.12h10.58l-10.58,28.71H284.8L279,93.29l-5.62,17.27h-9.83Z"/><path class="cls-2" d="M311.51,81.85h10.3v4.7a11.32,11.32,0,0,1,3.07-4.2,6.47,6.47,0,0,1,3.91-1.15,11.68,11.68,0,0,1,5.32,1.51l-3.4,7.85a8.54,8.54,0,0,0-3.08-.82,3.82,3.82,0,0,0-3.36,1.79q-1.69,2.5-1.7,9.41v9.62H311.51Z"/><path class="cls-2" d="M337.67,96.29a14.36,14.36,0,0,1,4.44-10.83c2.95-2.84,6.95-4.26,12-4.26q8.63,0,13,5a15.63,15.63,0,0,1-.86,20.78c-2.92,2.82-7,4.23-12.15,4.23q-6.92,0-11.19-3.51A14.12,14.12,0,0,1,337.67,96.29Zm11,0q0,3.84,1.56,5.68a5.08,5.08,0,0,0,7.81,0q1.53-1.8,1.53-5.81,0-3.74-1.54-5.55a4.8,4.8,0,0,0-3.81-1.83,5,5,0,0,0-4,1.85C349.23,91.86,348.7,93.74,348.7,96.26Z"/><path class="cls-2" d="M377.65,96.29a14.39,14.39,0,0,1,4.43-10.83q4.44-4.26,12-4.26,8.63,0,13,5a15.62,15.62,0,0,1-.85,20.78q-4.39,4.23-12.15,4.23-6.93,0-11.19-3.51A14.12,14.12,0,0,1,377.65,96.29Zm11,0q0,3.84,1.56,5.68a5.08,5.08,0,0,0,7.81,0q1.53-1.8,1.53-5.81c0-2.49-.52-4.34-1.54-5.55a4.8,4.8,0,0,0-3.82-1.83,5,5,0,0,0-4,1.85Q388.67,92.48,388.68,96.26Z"/><path class="cls-2" d="M419.06,81.85h10.28V86a14.3,14.3,0,0,1,4.48-3.73,12.23,12.23,0,0,1,5.45-1.11,10.44,10.44,0,0,1,5.44,1.22A9.06,9.06,0,0,1,448,86a16.79,16.79,0,0,1,4.72-3.83,12.35,12.35,0,0,1,5.27-1,9.47,9.47,0,0,1,7.21,2.74c1.73,1.83,2.59,4.7,2.59,8.59v18h-11V94.21a4.64,4.64,0,0,0-.75-2.9,3.32,3.32,0,0,0-2.75-1.48,3.87,3.87,0,0,0-3.13,1.4,7,7,0,0,0-1.18,4.52v14.81h-11V94.75a10.05,10.05,0,0,0-.22-2.57,3.58,3.58,0,0,0-1.22-1.75,3.28,3.28,0,0,0-2-.66,4,4,0,0,0-3.12,1.43c-.81,1-1.22,2.53-1.22,4.71v14.65h-11Z"/></g></g></svg>