<svg width="845" height="144" viewBox="0 0 845 144" fill="none" xmlns="http://www.w3.org/2000/svg">
<g clip-path="url(#clip0_65_228)">
<path d="M841.19 43.36C839.043 34.995 835.189 27.1644 829.87 20.36C824.629 13.756 817.833 8.5542 810.09 5.22C802.09 1.71333 791.623 -0.0433516 778.69 -0.0500183H712.99V143.15H778.71C787.632 143 796.497 141.689 805.08 139.25C812.554 137.151 819.396 133.242 825 127.87C831.334 121.958 836.288 114.723 839.51 106.68C842.99 98.2534 844.73 86.3867 844.73 71.08C844.776 61.7245 843.586 52.4038 841.19 43.36ZM824.27 77.27H811.91V71.5899C811.876 70.6655 812.029 69.7437 812.36 68.88C812.65 68.2115 813.1 67.6244 813.67 67.17C814.259 66.7005 814.941 66.3599 815.67 66.17C816.452 65.9575 817.26 65.8532 818.07 65.86C819.113 65.8161 820.154 65.9688 821.14 66.31C821.837 66.5875 822.462 67.0181 822.97 67.57C823.443 68.05 823.787 68.6416 823.97 69.29C824.185 70.028 824.299 70.7915 824.31 71.56L824.27 77.27Z" fill="#78E5FE"/>
<path d="M5.81741e-05 4.37997H19.4L26.4 41.38L36.63 4.37997H55.96L66.22 41.38L73.22 4.37997H92.53L77.95 70.5H57.95L46.36 28.87L34.8 70.5H14.8L5.81741e-05 4.37997Z" fill="white"/>
<path d="M156.19 51.15H119.39C119.72 54.1 120.51 56.3 121.78 57.74C122.626 58.7495 123.691 59.5537 124.893 60.0924C126.095 60.6311 127.403 60.8902 128.72 60.85C130.521 60.8518 132.292 60.3867 133.86 59.5C135.104 58.7039 136.192 57.6872 137.07 56.5L155.15 58.16C152.39 62.98 149.057 66.4333 145.15 68.52C141.243 70.6067 135.637 71.65 128.33 71.65C121.983 71.65 116.983 70.7566 113.33 68.9699C109.574 67.0484 106.45 64.0874 104.33 60.44C101.869 56.2908 100.625 51.5328 100.74 46.71C100.74 39.2167 103.14 33.1567 107.94 28.53C112.74 23.9033 119.36 21.5867 127.8 21.58C134.66 21.58 140.073 22.62 144.04 24.7C147.925 26.685 151.095 29.8307 153.11 33.7C155.183 37.64 156.22 42.7667 156.22 49.08L156.19 51.15ZM137.52 42.36C137.16 38.8133 136.203 36.27 134.65 34.73C133.84 33.954 132.88 33.3502 131.83 32.9549C130.78 32.5596 129.661 32.381 128.54 32.43C127.177 32.3905 125.826 32.6873 124.605 33.2943C123.384 33.9012 122.331 34.7996 121.54 35.91C120.262 37.8282 119.529 40.0576 119.42 42.36H137.52Z" fill="white"/>
<path d="M170.37 4.37997H188.77V70.5H170.37V4.37997Z" fill="white"/>
<path d="M241.3 51.73L258.75 53.73C257.88 57.1869 256.266 60.4121 254.02 63.18C251.752 65.8933 248.864 68.02 245.6 69.38C241.459 70.9819 237.038 71.7334 232.6 71.5899C228.325 71.6866 224.057 71.2091 219.91 70.17C216.691 69.3123 213.707 67.74 211.18 65.57C208.778 63.5076 206.827 60.9712 205.45 58.12C204.07 55.26 203.38 51.4733 203.38 46.76C203.233 42.5182 204.097 38.3022 205.9 34.46C207.156 32.0148 208.851 29.8216 210.9 27.99C212.839 26.2068 215.068 24.7662 217.49 23.73C221.07 22.2567 225.653 21.52 231.24 21.52C239.06 21.52 245.023 22.92 249.13 25.72C253.347 28.6831 256.402 33.0211 257.77 37.99L240.49 40.29C240.071 38.4398 239.007 36.7988 237.49 35.66C235.785 34.5501 233.772 34.0076 231.74 34.11C230.344 34.0643 228.956 34.3337 227.678 34.898C226.4 35.4624 225.266 36.3073 224.36 37.37C222.48 39.55 221.54 42.8466 221.54 47.26C221.54 51.1866 222.473 54.1866 224.34 56.26C225.235 57.2575 226.336 58.048 227.567 58.5765C228.799 59.105 230.131 59.3587 231.47 59.32C233.639 59.3898 235.77 58.7393 237.53 57.47C239.362 56.0033 240.682 53.9938 241.3 51.73Z" fill="white"/>
<path d="M270.01 46.68C270.01 39.38 272.477 33.36 277.41 28.62C282.343 23.88 289.01 21.51 297.41 21.51C306.997 21.51 314.243 24.2933 319.15 29.86C323.127 34.4397 325.236 40.3472 325.06 46.41C325.06 53.7833 322.617 59.82 317.73 64.52C312.843 69.22 306.083 71.5734 297.45 71.58C289.757 71.58 283.533 69.6266 278.78 65.7199C275.948 63.4385 273.682 60.5323 272.161 57.2291C270.639 53.9258 269.903 50.3153 270.01 46.68ZM288.41 46.68C288.41 50.9467 289.277 54.1033 291.01 56.15C291.788 57.1254 292.78 57.9093 293.908 58.4416C295.037 58.9738 296.272 59.2401 297.52 59.22C298.764 59.25 299.998 58.9953 301.128 58.4753C302.258 57.9554 303.254 57.1839 304.04 56.22C305.74 54.22 306.59 50.9867 306.59 46.52C306.59 42.3733 305.733 39.2833 304.02 37.25C303.258 36.2985 302.29 35.5336 301.187 35.0137C300.085 34.4938 298.879 34.2325 297.66 34.25C296.392 34.2244 295.136 34.4896 293.986 35.0252C292.837 35.5609 291.826 36.3527 291.03 37.34C289.29 39.3267 288.417 42.4267 288.41 46.64V46.68Z" fill="white"/>
<path d="M339.09 22.6H356.19V29.6C358.232 27.0342 360.777 24.9139 363.67 23.37C366.522 22.0667 369.635 21.4339 372.77 21.52C376.59 21.52 379.617 22.1867 381.85 23.52C384.191 24.9973 386.08 27.0904 387.31 29.57C389.521 26.9715 392.196 24.8079 395.2 23.19C397.964 21.9786 400.963 21.398 403.98 21.49C409.113 21.49 413.113 23.0166 415.98 26.07C418.847 29.1233 420.287 33.8967 420.3 40.39V70.4799H401.9V43.19C402.028 41.4847 401.585 39.7854 400.64 38.36C400.138 37.6029 399.458 36.9807 398.66 36.5482C397.861 36.1157 396.968 35.8863 396.06 35.88C395.068 35.8457 394.082 36.0398 393.176 36.4473C392.271 36.8547 391.472 37.4647 390.84 38.23C389.507 39.79 388.84 42.3 388.84 45.76V70.4799H370.44V44.15C370.506 42.7138 370.385 41.275 370.08 39.87C369.735 38.7142 369.035 37.6962 368.08 36.96C367.108 36.2174 365.913 35.8261 364.69 35.85C363.697 35.8281 362.713 36.0318 361.81 36.4458C360.908 36.8598 360.111 37.4733 359.48 38.24C358.13 39.84 357.48 42.45 357.48 46.09V70.54H339.09V22.6Z" fill="white"/>
<path d="M489.59 51.15H452.78C453.107 54.0967 453.903 56.2934 455.17 57.74C456.018 58.7497 457.084 59.554 458.288 60.0926C459.492 60.6313 460.802 60.8902 462.12 60.85C463.921 60.8505 465.692 60.3854 467.26 59.5C468.5 58.7031 469.585 57.6864 470.46 56.5L488.55 58.16C485.783 62.98 482.45 66.4333 478.55 68.52C474.65 70.6067 469.04 71.65 461.72 71.65C455.38 71.65 450.38 70.7566 446.72 68.9699C442.964 67.0484 439.84 64.0874 437.72 60.44C435.259 56.2908 434.015 51.5328 434.13 46.71C434.13 39.2167 436.527 33.1567 441.32 28.53C446.113 23.9033 452.737 21.5867 461.19 21.58C468.05 21.58 473.463 22.62 477.43 24.7C481.315 26.685 484.485 29.8307 486.5 33.7C488.573 37.64 489.61 42.7667 489.61 49.08L489.59 51.15ZM470.92 42.36C470.55 38.81 469.6 36.27 468.05 34.73C467.24 33.954 466.28 33.3502 465.23 32.9549C464.18 32.5596 463.061 32.381 461.94 32.43C460.577 32.3905 459.226 32.6873 458.005 33.2943C456.784 33.9012 455.731 34.7996 454.94 35.91C453.662 37.8282 452.929 40.0576 452.82 42.36H470.92Z" fill="white"/>
<path d="M561.13 4.37997V22.6H571.24V36.04H561.13V53.04C561.025 54.4007 561.227 55.7676 561.72 57.04C562.054 57.5624 562.526 57.982 563.084 58.2521C563.641 58.5222 564.263 58.6323 564.88 58.57C566.82 58.4562 568.733 58.0621 570.56 57.4L571.91 70.07C567.739 71.0191 563.478 71.5186 559.2 71.56C554.62 71.56 551.26 70.97 549.09 69.8C546.924 68.6241 545.229 66.7385 544.29 64.4601C543.25 62.0801 542.73 58.2166 542.73 52.87V36.04H535.97V22.6H542.73V13.8L561.13 4.37997Z" fill="white"/>
<path d="M582.81 46.68C582.81 39.38 585.277 33.36 590.21 28.62C595.143 23.88 601.81 21.51 610.21 21.51C619.797 21.51 627.043 24.2933 631.95 29.86C635.927 34.4397 638.036 40.3472 637.86 46.41C637.86 53.7833 635.417 59.82 630.53 64.52C625.643 69.22 618.887 71.5734 610.26 71.58C602.56 71.58 596.333 69.6266 591.58 65.7199C588.748 63.4385 586.482 60.5323 584.961 57.2291C583.439 53.9258 582.703 50.3153 582.81 46.68ZM601.22 46.68C601.22 50.9467 602.083 54.1033 603.81 56.15C604.59 57.1262 605.583 57.9105 606.713 58.4427C607.844 58.9749 609.081 59.2409 610.33 59.22C611.572 59.2492 612.804 58.994 613.933 58.4741C615.061 57.9541 616.055 57.1832 616.84 56.22C618.54 54.22 619.39 50.9867 619.39 46.52C619.39 42.37 618.54 39.28 616.82 37.25C616.058 36.2985 615.09 35.5336 613.987 35.0137C612.885 34.4938 611.679 34.2325 610.46 34.25C609.192 34.2259 607.936 34.4918 606.787 35.0273C605.638 35.5628 604.627 36.3539 603.83 37.34C602.07 39.3267 601.19 42.4267 601.19 46.64L601.22 46.68Z" fill="white"/>
<path d="M5.81741e-05 98.51H17.1201C19.9085 98.4025 22.6892 98.8688 25.29 99.88C27.3056 100.748 29.075 102.102 30.44 103.82C31.8439 105.591 32.8654 107.634 33.44 109.82C34.0626 112.176 34.3719 114.603 34.36 117.04C34.495 120.188 34.0335 123.333 33.0001 126.31C32.1618 128.406 30.8711 130.291 29.22 131.83C27.7627 133.241 25.9801 134.271 24.03 134.83C21.7958 135.457 19.4901 135.793 17.17 135.83H0.0499849L5.81741e-05 98.51ZM11.52 106.95V127.32H14.34C16.0915 127.439 17.8475 127.166 19.48 126.52C20.5834 125.899 21.4305 124.907 21.8701 123.72C22.5649 121.637 22.8601 119.442 22.74 117.25C22.74 113.303 22.0933 110.6 20.8 109.14C19.51 107.68 17.38 106.95 14.39 106.95H11.52Z" fill="white"/>
<path d="M72.5301 124.86H51.77C51.8384 126.204 52.3087 127.496 53.12 128.57C53.5982 129.14 54.1996 129.593 54.8786 129.896C55.5577 130.199 56.2967 130.344 57.04 130.32C58.0562 130.322 59.0554 130.06 59.94 129.56C60.6399 129.109 61.2501 128.533 61.74 127.86L71.94 128.8C70.6473 131.239 68.6923 133.263 66.3 134.64C64.0867 135.813 60.9234 136.4 56.81 136.4C53.9192 136.533 51.0352 136.017 48.37 134.89C46.2391 133.816 44.467 132.144 43.27 130.08C41.8893 127.739 41.1961 125.057 41.27 122.34C41.195 120.443 41.5174 118.551 42.2166 116.786C42.9158 115.021 43.9763 113.421 45.33 112.09C47.9967 109.477 51.7301 108.17 56.5301 108.17C59.6794 108.027 62.8181 108.63 65.69 109.93C67.8802 111.051 69.6664 112.826 70.8 115.01C72.0763 117.72 72.68 120.697 72.56 123.69L72.5301 124.86ZM62 119.86C61.9664 118.284 61.3947 116.767 60.38 115.56C59.9251 115.121 59.3854 114.779 58.794 114.555C58.2025 114.332 57.5717 114.231 56.94 114.26C56.1595 114.234 55.3848 114.403 54.6863 114.753C53.9878 115.102 53.3875 115.62 52.94 116.26C52.2243 117.345 51.8133 118.602 51.75 119.9L62 119.86Z" fill="white"/>
<path d="M100.29 125.21L110.14 126.33C109.643 128.278 108.732 130.096 107.47 131.66C106.191 133.192 104.562 134.392 102.72 135.16C100.382 136.063 97.8852 136.485 95.38 136.4C92.9682 136.456 90.5599 136.187 88.22 135.6C86.4062 135.117 84.7245 134.232 83.3 133.01C81.9479 131.845 80.8486 130.416 80.07 128.81C79.2096 126.786 78.81 124.597 78.9 122.4C78.8191 120.006 79.3093 117.627 80.33 115.46C81.0424 114.078 82.0093 112.843 83.18 111.82C84.2692 110.812 85.5243 110 86.89 109.42C89.3723 108.509 92.0071 108.084 94.65 108.17C99.0633 108.17 102.423 108.96 104.73 110.54C107.114 112.204 108.838 114.654 109.6 117.46L99.86 118.75C99.6244 117.715 99.0335 116.795 98.19 116.15C97.225 115.526 96.0878 115.221 94.94 115.28C94.1528 115.254 93.3698 115.405 92.6495 115.724C91.9291 116.043 91.2901 116.52 90.78 117.12C89.72 118.35 89.19 120.2 89.19 122.69C89.0734 124.496 89.6371 126.279 90.77 127.69C91.2706 128.252 91.8879 128.698 92.5788 128.997C93.2697 129.296 94.0175 129.44 94.77 129.42C95.989 129.472 97.1912 129.121 98.19 128.42C99.2102 127.597 99.945 126.474 100.29 125.21Z" fill="white"/>
<path d="M147.74 124.86H126.99C127.058 126.204 127.529 127.496 128.34 128.57C128.818 129.14 129.419 129.594 130.098 129.897C130.777 130.2 131.517 130.345 132.26 130.32C133.273 130.322 134.269 130.06 135.15 129.56C135.853 129.11 136.467 128.533 136.96 127.86L147.16 128.8C145.867 131.242 143.908 133.267 141.51 134.64C139.31 135.813 136.15 136.4 132.03 136.4C129.136 136.533 126.249 136.017 123.58 134.89C121.453 133.81 119.682 132.14 118.48 130.08C117.099 127.739 116.405 125.057 116.48 122.34C116.403 120.443 116.725 118.55 117.424 116.785C118.123 115.019 119.185 113.42 120.54 112.09C123.207 109.477 126.94 108.17 131.74 108.17C134.889 108.027 138.028 108.63 140.9 109.93C143.09 111.051 144.876 112.826 146.01 115.01C147.282 117.721 147.883 120.698 147.76 123.69L147.74 124.86ZM137.22 119.86C137.179 118.285 136.608 116.77 135.6 115.56C135.144 115.12 134.602 114.778 134.009 114.554C133.416 114.331 132.783 114.231 132.15 114.26C131.379 114.243 130.616 114.417 129.929 114.766C129.242 115.115 128.651 115.628 128.21 116.26C127.486 117.34 127.074 118.6 127.02 119.9L137.22 119.86Z" fill="white"/>
<path d="M155.37 108.78H165.01V113.18C166.188 111.611 167.675 110.301 169.38 109.33C171.057 108.514 172.906 108.116 174.77 108.17C176.009 108.099 177.248 108.291 178.408 108.732C179.568 109.173 180.621 109.854 181.5 110.73C183.12 112.43 183.93 115.063 183.93 118.63V135.79H173.53V120.94C173.65 119.667 173.317 118.392 172.59 117.34C172.247 116.992 171.832 116.722 171.375 116.549C170.917 116.376 170.428 116.305 169.94 116.34C169.365 116.331 168.795 116.454 168.274 116.7C167.754 116.946 167.298 117.309 166.94 117.76C166.16 118.713 165.77 120.417 165.77 122.87V135.87H155.42L155.37 108.78Z" fill="white"/>
<path d="M205.46 98.51V108.78H211.16V116.36H205.46V125.93C205.397 126.708 205.51 127.491 205.79 128.22C205.98 128.512 206.246 128.747 206.56 128.898C206.874 129.05 207.223 129.113 207.57 129.08C208.666 129.016 209.747 128.794 210.78 128.42L211.54 135.56C209.187 136.096 206.783 136.378 204.37 136.4C202.418 136.517 200.465 136.175 198.67 135.4C197.449 134.74 196.493 133.681 195.96 132.4C195.265 130.293 194.969 128.075 195.09 125.86V116.36H191.27V108.78H195.09V103.78L205.46 98.51Z" fill="white"/>
<path d="M219.06 108.78H228.75V113.21C229.383 111.667 230.373 110.296 231.64 109.21C232.716 108.465 234.002 108.086 235.31 108.13C237.068 108.197 238.783 108.687 240.31 109.56L237.11 116.93C236.199 116.498 235.216 116.241 234.21 116.17C233.584 116.148 232.962 116.292 232.409 116.587C231.856 116.882 231.391 117.317 231.06 117.85C229.987 119.417 229.45 122.367 229.45 126.7V135.75H219.05L219.06 108.78Z" fill="white"/>
<path d="M254.38 117.53L244.49 116.53C244.75 115.076 245.297 113.689 246.1 112.45C246.891 111.371 247.917 110.485 249.1 109.86C250.334 109.248 251.657 108.836 253.02 108.64C254.802 108.347 256.604 108.203 258.41 108.21C260.914 108.169 263.416 108.342 265.89 108.73C267.626 109.014 269.252 109.768 270.59 110.91C271.553 111.793 272.273 112.909 272.68 114.15C273.165 115.429 273.422 116.783 273.44 118.15V130.08C273.415 131.086 273.495 132.091 273.68 133.08C273.932 134.036 274.287 134.961 274.74 135.84H265.02C264.718 135.335 264.464 134.802 264.26 134.25C264.097 133.69 263.976 133.118 263.9 132.54C262.749 133.707 261.393 134.653 259.9 135.33C257.866 136.115 255.699 136.495 253.52 136.45C250.29 136.45 247.85 135.71 246.18 134.22C245.382 133.54 244.744 132.694 244.31 131.74C243.876 130.786 243.658 129.748 243.67 128.7C243.599 126.84 244.247 125.025 245.48 123.63C246.68 122.297 248.9 121.297 252.14 120.63C256.02 119.85 258.54 119.31 259.7 118.99C260.942 118.649 262.164 118.238 263.36 117.76C263.411 117.285 263.367 116.804 263.231 116.346C263.096 115.888 262.871 115.461 262.57 115.09C261.773 114.502 260.786 114.232 259.8 114.33C258.476 114.244 257.155 114.524 255.98 115.14C255.197 115.738 254.635 116.579 254.38 117.53ZM263.38 122.97C261.95 123.48 260.47 123.97 258.93 124.32C257.493 124.579 256.128 125.145 254.93 125.98C254.663 126.22 254.449 126.513 254.301 126.84C254.153 127.167 254.074 127.521 254.07 127.88C254.057 128.255 254.126 128.629 254.273 128.974C254.42 129.32 254.641 129.629 254.92 129.88C255.628 130.448 256.525 130.727 257.43 130.66C258.555 130.667 259.662 130.377 260.64 129.82C261.532 129.359 262.27 128.646 262.76 127.77C263.209 126.786 263.421 125.711 263.38 124.63V122.97Z" fill="white"/>
<path d="M282.91 98.51H293.29V135.79H282.91V98.51Z" fill="white"/>
<path d="M321.68 123.46L332.68 122.77C332.799 124.23 333.299 125.634 334.13 126.84C334.729 127.599 335.501 128.205 336.381 128.606C337.261 129.008 338.224 129.194 339.19 129.15C340.554 129.24 341.905 128.831 342.99 128C343.399 127.68 343.731 127.272 343.961 126.806C344.191 126.341 344.314 125.829 344.32 125.31C344.31 124.812 344.192 124.322 343.972 123.874C343.753 123.427 343.438 123.033 343.05 122.72C342.2 121.96 340.24 121.24 337.15 120.56C332.097 119.42 328.493 117.91 326.34 116.03C325.292 115.151 324.456 114.048 323.893 112.801C323.33 111.554 323.056 110.197 323.09 108.83C323.095 106.896 323.673 105.007 324.75 103.4C325.988 101.605 327.727 100.214 329.75 99.4C332.679 98.3085 335.797 97.8122 338.92 97.94C343.687 97.94 347.32 98.8266 349.82 100.6C352.32 102.373 353.807 105.193 354.28 109.06L343.42 109.69C343.281 108.291 342.638 106.99 341.61 106.03C340.507 105.21 339.152 104.803 337.78 104.88C336.711 104.81 335.65 105.114 334.78 105.74C334.466 105.985 334.212 106.299 334.039 106.658C333.865 107.017 333.777 107.411 333.78 107.81C333.79 108.123 333.871 108.429 334.016 108.707C334.162 108.984 334.368 109.224 334.62 109.41C335.795 110.144 337.115 110.615 338.49 110.79C342.213 111.459 345.845 112.563 349.31 114.08C351.254 114.982 352.903 116.413 354.07 118.21C355.066 119.877 355.582 121.788 355.56 123.73C355.566 126.083 354.87 128.385 353.56 130.34C352.209 132.385 350.281 133.983 348.02 134.93C345.16 136.069 342.096 136.603 339.02 136.5C332.68 136.5 328.287 135.28 325.84 132.84C323.354 130.326 321.874 126.99 321.68 123.46Z" fill="white"/>
<path d="M363.48 98.51H373.83V112.24C375.021 110.942 376.446 109.88 378.03 109.11C379.592 108.453 381.276 108.133 382.97 108.17C384.197 108.106 385.423 108.302 386.569 108.745C387.715 109.188 388.755 109.868 389.62 110.74C391.24 112.453 392.05 115.083 392.05 118.63V135.79H381.64V120.94C381.765 119.666 381.432 118.39 380.7 117.34C380.358 116.992 379.946 116.723 379.49 116.55C379.034 116.378 378.546 116.306 378.06 116.34C377.475 116.323 376.893 116.442 376.362 116.689C375.831 116.935 375.365 117.302 375 117.76C374.22 118.713 373.83 120.417 373.83 122.87V135.87H363.48V98.51Z" fill="white"/>
<path d="M399.82 122.36C399.757 120.46 400.096 118.569 400.815 116.81C401.533 115.05 402.615 113.462 403.99 112.15C406.77 109.483 410.527 108.15 415.26 108.15C420.667 108.15 424.753 109.72 427.52 112.86C429.761 115.442 430.949 118.772 430.85 122.19C430.915 124.086 430.581 125.975 429.869 127.733C429.158 129.492 428.085 131.082 426.72 132.4C423.96 135.067 420.147 136.4 415.28 136.4C410.94 136.4 407.43 135.3 404.75 133.1C403.155 131.812 401.88 130.172 401.025 128.309C400.169 126.445 399.757 124.409 399.82 122.36ZM410.2 122.36C410.2 124.77 410.68 126.55 411.66 127.7C412.099 128.249 412.658 128.691 413.294 128.99C413.931 129.29 414.627 129.441 415.33 129.43C416.032 129.446 416.729 129.301 417.367 129.006C418.005 128.712 418.567 128.275 419.01 127.73C419.97 126.59 420.45 124.767 420.45 122.26C420.591 120.401 420.078 118.551 419 117.03C418.571 116.49 418.025 116.055 417.403 115.757C416.781 115.459 416.1 115.306 415.41 115.31C414.694 115.296 413.985 115.446 413.336 115.749C412.688 116.053 412.117 116.501 411.67 117.06C410.576 118.594 410.053 120.461 410.19 122.34L410.2 122.36Z" fill="white"/>
<path d="M435.67 108.78H445.67L450 125.78L455.48 108.78H464.84L470.55 125.78L474.9 108.78H484.85L474.9 135.78H465.69L460.22 119.53L454.93 135.78H445.68L435.67 108.78Z" fill="white"/>
<path d="M490.83 108.78H500.52V113.21C501.153 111.667 502.143 110.296 503.41 109.21C504.485 108.464 505.772 108.085 507.08 108.13C508.838 108.197 510.553 108.687 512.08 109.56L508.88 116.93C507.969 116.498 506.986 116.241 505.98 116.17C505.354 116.148 504.732 116.292 504.179 116.587C503.626 116.882 503.161 117.317 502.83 117.85C501.763 119.417 501.227 122.367 501.22 126.7V135.75H490.82L490.83 108.78Z" fill="white"/>
<path d="M515.44 122.36C515.381 120.465 515.723 118.58 516.441 116.826C517.16 115.072 518.239 113.489 519.61 112.18C522.39 109.513 526.147 108.18 530.88 108.18C536.293 108.18 540.38 109.75 543.14 112.89C545.381 115.472 546.57 118.802 546.47 122.22C546.535 124.116 546.201 126.005 545.489 127.764C544.778 129.522 543.705 131.112 542.34 132.43C539.58 135.097 535.77 136.43 530.91 136.43C526.57 136.43 523.05 135.33 520.38 133.13C518.779 131.84 517.5 130.195 516.642 128.327C515.785 126.458 515.373 124.415 515.44 122.36ZM525.82 122.36C525.82 124.767 526.307 126.547 527.28 127.7C527.721 128.249 528.282 128.691 528.92 128.991C529.558 129.29 530.255 129.441 530.96 129.43C531.661 129.445 532.356 129.3 532.992 129.005C533.628 128.71 534.188 128.274 534.63 127.73C535.59 126.59 536.07 124.767 536.07 122.26C536.216 120.4 535.703 118.549 534.62 117.03C534.192 116.489 533.646 116.053 533.024 115.754C532.402 115.456 531.72 115.304 531.03 115.31C530.314 115.296 529.605 115.447 528.957 115.75C528.308 116.054 527.738 116.502 527.29 117.06C526.2 118.595 525.68 120.462 525.82 122.34V122.36Z" fill="white"/>
<path d="M553.05 122.36C552.983 120.463 553.318 118.573 554.031 116.813C554.744 115.054 555.821 113.465 557.19 112.15C559.97 109.483 563.727 108.15 568.46 108.15C573.867 108.15 577.953 109.72 580.72 112.86C582.961 115.442 584.149 118.772 584.05 122.19C584.115 124.086 583.781 125.975 583.069 127.733C582.358 129.492 581.285 131.082 579.92 132.4C577.16 135.067 573.347 136.4 568.48 136.4C564.14 136.4 560.63 135.3 557.95 133.1C556.36 131.809 555.091 130.168 554.241 128.304C553.391 126.441 552.983 124.407 553.05 122.36ZM563.43 122.36C563.43 124.77 563.91 126.55 564.89 127.7C565.331 128.25 565.892 128.692 566.529 128.992C567.167 129.292 567.865 129.441 568.57 129.43C569.271 129.445 569.966 129.3 570.602 129.005C571.238 128.71 571.798 128.274 572.24 127.73C573.2 126.59 573.68 124.767 573.68 122.26C573.821 120.401 573.308 118.551 572.23 117.03C571.802 116.489 571.256 116.053 570.634 115.754C570.012 115.456 569.33 115.304 568.64 115.31C567.924 115.296 567.215 115.447 566.567 115.75C565.918 116.054 565.348 116.502 564.9 117.06C563.81 118.595 563.29 120.462 563.43 122.34V122.36Z" fill="white"/>
<path d="M592.01 108.78H601.67V112.72C602.823 111.275 604.259 110.081 605.89 109.21C607.502 108.491 609.256 108.149 611.02 108.21C612.8 108.119 614.57 108.516 616.14 109.36C617.458 110.19 618.524 111.366 619.22 112.76C620.468 111.298 621.977 110.081 623.67 109.17C625.224 108.47 626.916 108.128 628.62 108.17C629.868 108.099 631.117 108.291 632.285 108.736C633.454 109.181 634.515 109.867 635.4 110.75C637.03 112.47 637.84 115.17 637.84 118.83V135.83H627.46V120.45C627.536 119.486 627.286 118.525 626.75 117.72C626.468 117.293 626.085 116.943 625.635 116.701C625.184 116.458 624.681 116.331 624.17 116.33C623.612 116.31 623.056 116.419 622.546 116.648C622.037 116.877 621.586 117.22 621.23 117.65C620.377 118.891 619.981 120.39 620.11 121.89V135.83H609.73V120.95C609.77 120.141 609.703 119.331 609.53 118.54C609.331 117.885 608.928 117.31 608.38 116.9C607.835 116.476 607.16 116.254 606.47 116.27C605.91 116.258 605.354 116.373 604.845 116.607C604.335 116.84 603.886 117.187 603.53 117.62C602.651 118.921 602.245 120.485 602.38 122.05V135.83H592.01V108.78Z" fill="white"/>
</g>
<defs>
<clipPath id="clip0_65_228">
<rect width="844.73" height="143.16" fill="white"/>
</clipPath>
</defs>
</svg>
